<?xml version="1.0" encoding="UTF-8"?>
<svg xmlns="http://www.w3.org/2000/svg" width="512" height="512" viewBox="0 0 512 512" role="img" aria-labelledby="title desc">
  <title id="title">Velocity Funds &#8211; Orbital Momentum Icon</title>
  <desc id="desc">A modern mint-green (#34d399) broken ring with a forward arrow and motion cuts, symbolizing velocity, growth, and discipline.</desc>
  <defs>
    <style><![CDATA[ .mint { fill:#34d399; } ]]></style>
  </defs>

  <!-- Orbital ring with arrowhead and motion cuts, using evenodd to create holes -->
  <path class="mint" fill-rule="evenodd" d="
    M256,64
    a192,192 0 1 1 0,384
    a192,192 0 1 1 0,-384
    M256,136
    a120,120 0 1 0 0,240
    a120,120 0 1 0 0,-240
    Z
  "/>

  <!-- Arrowhead that breaks through the ring (northeast) -->
  <path class="mint" d="
    M332,164
    l88,52
    c7,4.1 7,13.9 0,18l-88,52
    c-7.5,4.4 -16.4,-2.2 -14.7,-10.7l8.6-41.3
    c.7-3.6 -1.3-7.2 -4.7-8.6l-41.2-17.2
    c-8.2-3.4 -8.2-15.3 0-18.7l41.2-17.2
    c3.4-1.4 5.4-5 4.7-8.6l-8.6-41.3
    c-1.7-8.5 9.1-15.1 16.6-10.7Z"/>

  <!-- Motion cuts (transparent) -->
  <path fill="#0000" fill-opacity="0" d="M0,0h512v512H0z"/>
  <path fill="#000" fill-opacity="0">
    <animate attributeName="fill-opacity" from="0" to="0" dur="0.001s" repeatCount="1"/>
  </path>

  <!-- Two slits (holes) on the opposite side of the ring -->
  <path class="mint" fill-rule="evenodd" d="
    M96,248 h76 v24 h-76 Z
    M120,208 h64 v20 h-64 Z
  "/>
</svg>
